#!OML:ASF G:\JayActor3\Patient Classification 1\Patient 1\Session 5\male.ASF
:FULLY-SPECIFIED
:DEGREES
732
root -35.0317 16.8026 -6.43425 1078.23 -172.292 -1077.08
lowerback 2.5222 -2.10591 0.837249
upperback 2.72486 -2.88902 -0.365528
thorax 1.32103 -1.46811 -0.804316
lowerneck -6.70411 -7.38298 -4.71615
upperneck 6.38925 -10.8322 11.6244
head 3.90693 -5.15099 3.64909
rclavicle 2.09718e-014 -4.77083e-015
rhumerus -33.6961 -6.00419 -83.6082
rradius 25.5361
rwrist 3.81452
rhand -19.7347 -4.9613
rfingers 7.12502
rthumb 6.59596 -34.8386
lclavicle 2.09718e-014 -4.77083e-015
lhumerus -26.6687 1.16052 83.0626
lradius 23.9353
lwrist 13.0192
lhand -21.587 16.7486
lfingers 7.12502
lthumb 4.80756 46.674
rfemur -17.8532 -6.88289 27.6409
rtibia 39.9992
rfoot -27.7858 -25.2914
rtoes 7.22515
lfemur -4.97227 26.8909 -16.3785
ltibia 37.1651
lfoot -35.3954 38.692
ltoes 7.62398
733
root -35.0275 16.7944 -6.4572 1078.09 -173.322 -1076.92
lowerback 2.65364 -2.03005 1.05132
upperback 2.77712 -2.78969 -0.342524
thorax 1.29451 -1.41757 -0.89763
lowerneck -6.66942 -7.44097 -4.65458
upperneck 6.26892 -10.9282 11.7232
head 3.87562 -5.20291 3.66464
rclavicle -2.59414e-014 -3.97569e-016
rhumerus -33.6236 -6.0157 -83.6527
rradius 25.4553
rwrist 3.86521
rhand -19.7314 -4.93817
rfingers 7.12502
rthumb 6.5991 -34.8153
lclavicle -2.59414e-014 -3.97569e-016
lhumerus -26.7568 0.830215 83.1558
lradius 24.3169
lwrist 13.3348
lhand -21.6521 16.8027
lfingers 7.12502
lthumb 4.7447 46.7296
rfemur -17.577 -6.53017 27.8661
rtibia 39.8927
rfoot -27.2759 -25.0036
rtoes 6.77258
lfemur -5.34542 27.4485 -15.7862
ltibia 38.7697
lfoot -34.1492 38.393
ltoes 7.61588
734
root -35.0252 16.7859 -6.47975 1077.95 -174.416 -1076.76
lowerback 2.78288 -1.93744 1.28423
upperback 2.83549 -2.66795 -0.326059
thorax 1.2757 -1.35565 -1.00919
lowerneck -6.63914 -7.95229 -4.5357
upperneck 6.24703 -10.9368 11.7757
head 3.86642 -4.88833 3.6816
rclavicle 7.55382e-015 3.97569e-015
rhumerus -33.5255 -6.08485 -83.6996
rradius 25.3665
rwrist 3.99301
rhand -19.737 -4.94496
rfingers 7.12502
rthumb 6.5937 -34.8223
lclavicle 7.55382e-015 3.97569e-015
lhumerus -26.8638 0.420545 83.2603
lradius 24.7386
lwrist 13.7243
lhand -21.7363 16.8672
lfingers 7.12502
lthumb 4.66342 46.7959
rfemur -17.3033 -6.12531 28.0958
rtibia 39.795
rfoot -26.7689 -24.7066
rtoes 6.30747
lfemur -5.71808 27.9807 -15.1727
ltibia 40.4018
lfoot -32.8086 37.9754
ltoes 7.46263
735
root -35.0252 16.7772 -6.50219 1077.82 -175.563 -1076.6
lowerback 2.91221 -1.84898 1.51217
upperback 2.8958 -2.55186 -0.311108
thorax 1.25982 -1.29676 -1.1199
lowerneck -6.57973 -8.00009 -4.46729
upperneck 6.1214 -11.0018 11.888
head 3.82732 -4.91779 3.70391
rclavicle -9.14409e-015 1.90833e-014
rhumerus -33.3977 -6.11601 -83.769
rradius 25.2664
rwrist 4.15189
rhand -19.7533 -4.97774
rfingers 7.12502
rthumb 6.57799 -34.8556
lclavicle -9.14409e-015 1.90833e-014
lhumerus -27.0122 0.00678414 83.3605
lradius 25.203
lwrist 14.169
lhand -21.8416 16.9468
lfingers 7.12502
lthumb 4.56168 46.8776
rfemur -17.0289 -5.69384 28.3116
rtibia 39.7114
rfoot -26.2591 -24.3849
rtoes 5.79953
lfemur -6.0662 28.4748 -14.5498
ltibia 42.028
lfoot -31.4373 37.4129
ltoes 7.2253
736
root -35.0269 16.7682 -6.52395 1077.69 -176.732 -1076.46
lowerback 3.04527 -1.78423 1.71452
upperback 2.9463 -2.46714 -0.28201
thorax 1.2333 -1.25417 -1.2012
lowerneck -6.484 -8.01898 -4.43029
upperneck 5.99684 -11.0254 11.9935
head 3.78033 -4.93024 3.73361
rclavicle -3.32964e-014 -1.27222e-014
rhumerus -33.2529 -6.06638 -83.849
rradius 25.1643
rwrist 4.34126
rhand -19.7826 -5.04223
rfingers 7.12502
rthumb 6.54967 -34.921
lclavicle -3.32964e-014 -1.27222e-014
lhumerus -27.2106 -0.299657 83.4468
lradius 25.6894
lwrist 14.6033
lhand -21.926 17.022
lfingers 7.12502
lthumb 4.48025 46.9547
rfemur -16.7703 -5.24227 28.5129
rtibia 39.6486
rfoot -25.77 -24.0489
rtoes 5.2995
lfemur -6.39421 28.9068 -13.9329
ltibia 43.6173
lfoot -29.9498 36.7359
ltoes 6.80764
737
root -35.0302 16.7586 -6.54437 1077.58 -177.889 -1076.32
lowerback 3.17961 -1.7533 1.89061
upperback 2.98209 -2.4269 -0.235251
thorax 1.19168 -1.23444 -1.2486
lowerneck -6.35178 -8.00988 -4.43579
upperneck 5.87553 -11.0088 12.0945
head 3.72688 -4.92641 3.77295
rclavicle -3.24019e-014 8.34896e-015
rhumerus -33.0944 -5.91594 -83.941
rradius 25.0668
rwrist 4.52677
rhand -19.8308 -5.13165
rfingers 7.12502
rthumb 6.50319 -35.0118
lclavicle -3.24019e-014 8.34896e-015
lhumerus -27.4427 -0.418272 83.5022
lradius 26.1653
lwrist 14.9462
lhand -21.9911 17.0799
lfingers 7.12502
lthumb 4.41735 47.0139
rfemur -16.5445 -4.78891 28.7048
rtibia 39.6108
rfoot -25.3105 -23.7066
rtoes 4.82875
lfemur -6.71168 29.2502 -13.3305
ltibia 45.1384
lfoot -28.3175 35.9524
ltoes 6.13331
738
root -35.0341 16.7485 -6.56249 1077.49 -179.005 -1076.19
lowerback 3.32866 -1.75727 2.0156
upperback 2.99892 -2.43259 -0.169685
thorax 1.12365 -1.23884 -1.24622
lowerneck -6.19784 -7.98431 -4.48606
upperneck 5.76687 -10.9684 12.1865
head 3.67342 -4.91377 3.81895
rclavicle 5.1684e-015 1.70955e-014
rhumerus -32.9304 -5.6931 -84.0289
rradius 24.9821
rwrist 4.70165
rhand -19.897 -5.22961
rfingers 7.12502
rthumb 6.43929 -35.1117
lclavicle 5.1684e-015 1.70955e-014
lhumerus -27.6901 -0.314332 83.5281
lradius 26.6036
lwrist 15.1595
lhand -22.0169 17.1079
lfingers 7.12502
lthumb 4.39241 47.0424
rfemur -16.3597 -4.34521 28.8743
rtibia 39.5983
rfoot -24.9456 -23.3238
rtoes 4.55381
lfemur -7.02497 29.4658 -12.7693
ltibia 46.5628
lfoot -26.5705 34.9948
ltoes 5.74138
739
root -35.0384 16.7389 -6.5782 1077.43 -180.069 -1076.08
lowerback 3.48921 -1.78327 2.10262
upperback 3.00107 -2.46711 -0.089399
thorax 1.03517 -1.25857 -1.20595
lowerneck -6.04627 -7.95914 -4.57516
upperneck 5.67419 -10.928 12.2735
head 3.62687 -4.90241 3.86911
rclavicle -9.49197e-015 6.75868e-015
rhumerus -32.7748 -5.36463 -84.1312
rradius 24.9455
rwrist 4.76117
rhand -19.9751 -5.32072
rfingers 7.12502
rthumb 6.36383 -35.2051
lclavicle -9.49197e-015 6.75868e-015
lhumerus -27.9256 -0.0472897 83.5358
lradius 26.9915
lwrist 15.2567
lhand -22.0384 17.1161
lfingers 7.12502
lthumb 4.37166 47.051
rfemur -16.2175 -3.92175 29.0327
rtibia 39.6025
rfoot -24.5049 -23.0199
rtoes 4.0318
lfemur -7.34482 29.5069 -12.2532
ltibia 47.8646
lfoot -24.8389 33.8142
ltoes 5.3989
740
root -35.0433 16.7303 -6.59174 1077.4 -181.08 -1075.98
lowerback 3.65248 -1.99713 2.15724
upperback 2.99393 -2.47377 -0.011074
thorax 0.933437 -1.14554 -1.14761
lowerneck -5.92172 -7.95061 -4.67247
upperneck 5.60054 -10.9111 12.347
head 3.59217 -4.90219 3.91342
rclavicle -1.09332e-015 3.18055e-015
rhumerus -32.6253 -4.99864 -84.2389
rradius 24.9598
rwrist 4.71737
rhand -20.0671 -5.41091
rfingers 7.12502
rthumb 6.275 -35.298
lclavicle -1.09332e-015 3.18055e-015
lhumerus -28.1234 0.343529 83.5257
lradius 27.3113
lwrist 15.2405
lhand -22.0301 17.0953
lfingers 7.12502
lthumb 4.37966 47.03
rfemur -16.1156 -3.49728 29.185
rtibia 39.6124
rfoot -24.0343 -22.7842
rtoes 3.36976
lfemur -7.68028 29.3569 -11.7889
ltibia 49.0255
lfoot -23.2676 32.3562
ltoes 5.13707
741
root -35.0493 16.7234 -6.6041 1077.4 -182.052 -1075.89
lowerback 3.79885 -2.03375 2.22225
upperback 2.98963 -2.51563 0.0603835
thorax 0.846342 -1.16643 -1.10407
lowerneck -5.83704 -7.9669 -4.75729
upperneck 5.54179 -10.9299 12.4197
head 3.57099 -4.91699 3.9512
rclavicle -2.05245e-014 1.63003e-014
rhumerus -32.4737 -4.65954 -84.358
rradius 25.0211
rwrist 4.58359
rhand -20.1557 -5.46502
rfingers 7.12502
rthumb 6.18953 -35.3546
lclavicle -2.05245e-014 1.63003e-014
lhumerus -28.2926 0.672803 83.5231
lradius 27.6154
lwrist 15.264
lhand -22.0347 17.0919
lfingers 7.12502
lthumb 4.37524 47.0267
rfemur -16.042 -3.07607 29.3233
rtibia 39.6162
rfoot -23.4965 -22.6172
rtoes 2.4912
lfemur -8.02644 29.0033 -11.3925
ltibia 50.0292
lfoot -22.009 30.6842
ltoes 4.81022
742
root -35.0568 16.7183 -6.61624 1077.43 -183.006 -1075.79
lowerback 3.90409 -2.05908 2.3145
upperback 2.99432 -2.54265 0.112249
thorax 0.789975 -1.17894 -1.0978
lowerneck -5.78747 -8.00781 -4.82466
upperneck 5.48674 -10.9835 12.5018
head 3.55956 -4.9462 3.98521
rclavicle -2.11209e-014 7.55382e-015
rhumerus -32.3152 -4.40085 -84.4814
rradius 25.1241
rwrist 4.41386
rhand -20.1811 -5.47223
rfingers 7.12502
rthumb 6.16498 -35.3625
lclavicle -2.11209e-014 7.55382e-015
lhumerus -28.4198 0.918153 83.5227
lradius 27.8941
lwrist 15.3337
lhand -22.0373 17.0888
lfingers 7.12502
lthumb 4.3727 47.0236
rfemur -15.9961 -2.63631 29.4601
rtibia 39.6073
rfoot -22.9217 -22.5041
rtoes 1.47666
lfemur -8.39073 28.464 -11.0605
ltibia 50.8714
lfoot -21.0956 28.8968
ltoes 4.12914
743
root -35.0661 16.7149 -6.62923 1077.49 -183.963 -1075.71
lowerback 3.96231 -2.07517 2.42316
upperback 3.01124 -2.55828 0.135943
thorax 0.77084 -1.18484 -1.13183
lowerneck -5.75542 -8.06083 -4.85353
upperneck 5.42662 -11.0548 12.5869
head 3.54934 -4.98208 4.01221
rclavicle 2.10712e-014 -7.55382e-015
rhumerus -32.1458 -4.23583 -84.6166
rradius 25.2541
rwrist 4.24435
rhand -20.1418 -5.43842
rfingers 7.12502
rthumb 6.2029 -35.3276
lclavicle 2.10712e-014 -7.55382e-015
lhumerus -28.5118 1.10634 83.5046
lradius 28.143
lwrist 15.4386
lhand -22.0358 17.0989
lfingers 7.12502
lthumb 4.37417 47.0337
rfemur -15.9641 -2.16589 29.5763
rtibia 39.588
rfoot -22.3728 -22.3867
rtoes 0.499084
lfemur -8.74968 27.7646 -10.8022
ltibia 51.548
lfoot -20.5302 27.106
ltoes 3.06865
744
root -35.077 16.7133 -6.64311 1077.57 -184.924 -1075.64
lowerback 3.97079 -2.08818 2.53695
upperback 3.03421 -2.57176 0.140526
thorax 0.784633 -1.18925 -1.19029
lowerneck -5.72528 -8.11479 -4.87023
upperneck 5.35689 -11.1275 12.6838
head 3.53684 -5.01777 4.04085
rclavicle -1.23246e-014 1.11319e-014
rhumerus -31.971 -4.17497 -84.7474
rradius 25.4026
rwrist 4.11775
rhand -20.0477 -5.36694
rfingers 7.12502
rthumb 6.29381 -35.2534
lclavicle -1.23246e-014 1.11319e-014
lhumerus -28.5776 1.26311 83.4734
lradius 28.355
lwrist 15.5707
lhand -22.0383 17.1202
lfingers 7.12502
lthumb 4.37179 47.0551
rfemur -15.9547 -1.6596 29.6717
rtibia 39.5652
rfoot -21.9061 -22.2392
rtoes -0.284579
lfemur -9.10926 26.9189 -10.6199
ltibia 52.0632
lfoot -20.2516 25.3883
ltoes 1.74686
